<?xml version="1.0" encoding="UTF-8" standalone="no"?>
<!-- Created with Inkscape (http://www.inkscape.org/) -->

<svg
   width="160.00002mm"
   height="160.00002mm"
   viewBox="0 0 160.00002 160.00002"
   version="1.1"
   id="svg5"
   inkscape:version="1.2.2 (b0a8486541, 2022-12-01)"
   sodipodi:docname="404.svg"
   inkscape:export-filename="404.png"
   inkscape:export-xdpi="317.5"
   inkscape:export-ydpi="317.5"
   xmlns:inkscape="http://www.inkscape.org/namespaces/inkscape"
   xmlns:sodipodi="http://sodipodi.sourceforge.net/DTD/sodipodi-0.dtd"
   xmlns="http://www.w3.org/2000/svg"
   xmlns:svg="http://www.w3.org/2000/svg">
  <sodipodi:namedview
     id="namedview7"
     pagecolor="#ffffff"
     bordercolor="#999999"
     borderopacity="1"
     inkscape:showpageshadow="0"
     inkscape:pageopacity="0"
     inkscape:pagecheckerboard="0"
     inkscape:deskcolor="#d1d1d1"
     inkscape:document-units="mm"
     showgrid="false"
     inkscape:zoom="0.68506594"
     inkscape:cx="408.71978"
     inkscape:cy="327.70568"
     inkscape:window-width="1680"
     inkscape:window-height="1013"
     inkscape:window-x="0"
     inkscape:window-y="0"
     inkscape:window-maximized="1"
     inkscape:current-layer="layer1" />
  <defs
     id="defs2">
    <inkscape:path-effect
       effect="offset"
       id="path-effect1732"
       is_visible="true"
       lpeversion="1.2"
       linejoin_type="miter"
       unit="mm"
       offset="3.9"
       miter_limit="4"
       attempt_force_join="false"
       update_on_knot_move="true" />
  </defs>
  <g
     inkscape:label="Layer 1"
     inkscape:groupmode="layer"
     id="layer1"
     transform="translate(-38.575991,-80.557368)">
    <rect
       style="fill:#ffffff;fill-opacity:1;stroke:#b3b3b3;stroke-width:2.00001;stroke-linecap:round;stroke-linejoin:miter;stroke-miterlimit:4;stroke-dasharray:none;stroke-opacity:1;paint-order:normal"
       id="rect4597"
       width="158"
       height="158"
       x="39.575996"
       y="81.557373" />
    <g
       id="g4543"
       transform="matrix(0.98333333,0,0,0.974789,12.80026,12.8128)"
       style="stroke-width:1.0214">
      <rect
         style="fill:#a87c11;fill-opacity:1;stroke:#000000;stroke-width:2.04279;stroke-linecap:round;stroke-linejoin:round;stroke-miterlimit:4;stroke-dasharray:none;stroke-opacity:1;paint-order:normal"
         id="rect234"
         width="120"
         height="80"
         x="47.568546"
         y="91.035309" />
      <rect
         style="fill:#82ffd5;fill-opacity:1;stroke:#000000;stroke-width:2.04279;stroke-linecap:round;stroke-linejoin:round;stroke-miterlimit:4;stroke-dasharray:none;stroke-opacity:1;paint-order:normal"
         id="rect236"
         width="100"
         height="60"
         x="57.568546"
         y="101.03531" />
      <path
         id="rect3712-3"
         style="fill:#21b62b;fill-opacity:1;stroke:#000000;stroke-width:2.06985;stroke-linecap:round;stroke-linejoin:round;stroke-miterlimit:4;stroke-dasharray:none;stroke-opacity:1;paint-order:normal"
         d="m 173.833,-27.568469 -6e-5,59.379997 55.66714,-55.667143 -3.71269,-3.71269 z"
         transform="matrix(0.62192672,0.78307545,-0.62192672,0.78307545,0,0)" />
      <circle
         style="fill:#ffdf2c;fill-opacity:1;stroke:#000000;stroke-width:2.04279;stroke-linecap:round;stroke-linejoin:round;stroke-miterlimit:4;stroke-dasharray:none;stroke-opacity:1;paint-order:normal"
         id="path2512"
         cx="76.735786"
         cy="114.70493"
         r="9.3909769" />
      <path
         id="rect3712"
         style="fill:#00de1a;fill-opacity:1;stroke:#000000;stroke-width:2.06985;stroke-linecap:round;stroke-linejoin:round;stroke-miterlimit:4;stroke-dasharray:none;stroke-opacity:1;paint-order:normal"
         d="m 147.30181,17.685868 -2e-5,37.051027 1.80289,1.802892 38.85412,-38.854122 z"
         transform="matrix(0.62192672,0.78307545,-0.62192672,0.78307545,0,0)" />
    </g>
    <g
       aria-label="404
NOT FOUND"
       id="text4680"
       style="font-size:19.7556px;line-height:1;font-family:Verdana;-inkscape-font-specification:'Verdana, Normal';font-variant-ligatures:none;letter-spacing:1.32292px;word-spacing:0px;fill:#f00f0f;fill-opacity:1;stroke:#f00f0f;stroke-width:1;stroke-linejoin:round;stroke-dasharray:none;stroke-opacity:1"
       transform="translate(0,-0.49992298)">
      <path
         d="m 111.32675,197.25869 v -0.79023 h -1.63972 V 185.6424 l -8.08004,11.61629 h 7.25031 v 2.68676 h 0.82973 v -2.68676 z m -2.46945,-0.79023 h -5.80815 l 5.80815,-8.3171 z"
         style="font-weight:500;font-family:GeosansLight;-inkscape-font-specification:'GeosansLight Medium';text-align:center;text-anchor:middle;fill:#f00f0f;fill-opacity:1;stroke:#f00f0f;stroke-width:1;stroke-linejoin:round;stroke-dasharray:none;stroke-opacity:1"
         id="path4734" />
      <path
         d="m 123.49549,192.77417 q 0,-2.78554 -1.16558,-4.87964 -1.4224,-2.50896 -4.01039,-2.50896 -2.58798,0 -4.01038,2.50896 -1.16558,2.05459 -1.16558,4.87964 0,2.80529 1.16558,4.85987 1.4224,2.50897 4.01038,2.50897 2.60774,0 4.03015,-2.48921 1.14582,-2.03483 1.14582,-4.87963 z m -0.84949,0 q 0,2.70651 -1.08656,4.50427 -1.20509,2.03483 -3.23992,2.03483 -2.19287,0 -3.3782,-2.29165 -0.92852,-1.81751 -0.92852,-4.24745 0,-2.66701 1.08656,-4.52404 1.22485,-2.05458 3.22016,-2.05458 2.23239,0 3.39797,2.29165 0.92851,1.81752 0.92851,4.28697 z"
         style="font-weight:500;font-family:GeosansLight;-inkscape-font-specification:'GeosansLight Medium';text-align:center;text-anchor:middle;fill:#f00f0f;fill-opacity:1;stroke:#f00f0f;stroke-width:1;stroke-linejoin:round;stroke-dasharray:none;stroke-opacity:1"
         id="path4736" />
      <path
         d="m 134.55792,197.25869 v -0.79023 H 132.9182 V 185.6424 l -8.08004,11.61629 h 7.25031 v 2.68676 h 0.82973 v -2.68676 z m -2.46945,-0.79023 h -5.80815 l 5.80815,-8.3171 z"
         style="font-weight:500;font-family:GeosansLight;-inkscape-font-specification:'GeosansLight Medium';text-align:center;text-anchor:middle;fill:#f00f0f;fill-opacity:1;stroke:#f00f0f;stroke-width:1;stroke-linejoin:round;stroke-dasharray:none;stroke-opacity:1"
         id="path4738" />
      <path
         d="m 74.612729,220.55738 v -14.34257 h -0.80998 v 12.24847 L 63.273014,206.11603 v 14.20428 h 0.790224 v -11.97189 z"
         style="font-weight:500;font-family:GeosansLight;-inkscape-font-specification:'GeosansLight Medium';text-align:center;text-anchor:middle;fill:#f00f0f;fill-opacity:1;stroke:#f00f0f;stroke-width:1;stroke-linejoin:round;stroke-dasharray:none;stroke-opacity:1"
         id="path4740" />
      <path
         d="m 92.708155,213.26756 q 0,-3.20041 -2.034826,-5.23523 -2.054583,-2.01508 -5.235234,-2.01508 -3.200408,0 -5.235234,2.03483 -2.015072,2.01507 -2.015072,5.21548 0,3.20041 2.034827,5.23523 2.015071,2.01508 5.215479,2.01508 3.200407,0 5.235234,-2.03483 2.034826,-2.01507 2.034826,-5.21548 z m -0.809979,0 q 0,2.86456 -1.79776,4.66232 -1.817515,1.77801 -4.662321,1.77801 -2.825051,0 -4.642566,-1.81752 -1.79776,-1.79776 -1.79776,-4.62281 0,-2.82505 1.817515,-4.64257 1.817515,-1.81751 4.622811,-1.81751 2.844806,0 4.662321,1.81751 1.79776,1.79776 1.79776,4.64257 z"
         style="font-weight:500;font-family:GeosansLight;-inkscape-font-specification:'GeosansLight Medium';text-align:center;text-anchor:middle;fill:#f00f0f;fill-opacity:1;stroke:#f00f0f;stroke-width:1;stroke-linejoin:round;stroke-dasharray:none;stroke-opacity:1"
         id="path4742" />
      <path
         d="m 100.37263,207.02479 v -0.80998 h -7.052747 v 0.80998 h 3.121385 v 13.29552 h 0.80998 v -13.29552 z"
         style="font-weight:500;font-family:GeosansLight;-inkscape-font-specification:'GeosansLight Medium';text-align:center;text-anchor:middle;fill:#f00f0f;fill-opacity:1;stroke:#f00f0f;stroke-width:1;stroke-linejoin:round;stroke-dasharray:none;stroke-opacity:1"
         id="path4744" />
      <path
         d="m 116.45226,212.97123 v -0.80998 h -5.33401 v -5.13646 h 5.33401 v -0.80998 h -6.12423 v 14.1055 h 0.79022 v -7.34908 z"
         style="font-weight:500;font-family:GeosansLight;-inkscape-font-specification:'GeosansLight Medium';text-align:center;text-anchor:middle;fill:#f00f0f;fill-opacity:1;stroke:#f00f0f;stroke-width:1;stroke-linejoin:round;stroke-dasharray:none;stroke-opacity:1"
         id="path4746" />
      <path
         d="m 133.75746,213.26756 q 0,-3.20041 -2.03483,-5.23523 -2.05458,-2.01508 -5.23523,-2.01508 -3.20041,0 -5.23523,2.03483 -2.01507,2.01507 -2.01507,5.21548 0,3.20041 2.03482,5.23523 2.01507,2.01508 5.21548,2.01508 3.20041,0 5.23523,-2.03483 2.03483,-2.01507 2.03483,-5.21548 z m -0.80998,0 q 0,2.86456 -1.79776,4.66232 -1.81751,1.77801 -4.66232,1.77801 -2.82505,0 -4.64257,-1.81752 -1.79776,-1.79776 -1.79776,-4.62281 0,-2.82505 1.81752,-4.64257 1.81752,-1.81751 4.62281,-1.81751 2.84481,0 4.66232,1.81751 1.79776,1.79776 1.79776,4.64257 z"
         style="font-weight:500;font-family:GeosansLight;-inkscape-font-specification:'GeosansLight Medium';text-align:center;text-anchor:middle;fill:#f00f0f;fill-opacity:1;stroke:#f00f0f;stroke-width:1;stroke-linejoin:round;stroke-dasharray:none;stroke-opacity:1"
         id="path4748" />
      <path
         d="m 145.49159,216.80381 v -10.589 h -0.80998 v 10.589 q 0,1.32363 -1.00753,2.11385 -0.92851,0.73096 -2.29165,0.73096 -1.38289,0 -2.29165,-0.7112 -0.98778,-0.77047 -0.98778,-2.13361 v -10.589 h -0.79022 v 10.589 q 0,1.71874 1.20509,2.72628 1.14582,0.92851 2.86456,0.92851 1.778,0 2.86456,-0.90876 1.2446,-1.02729 1.2446,-2.74603 z"
         style="font-weight:500;font-family:GeosansLight;-inkscape-font-specification:'GeosansLight Medium';text-align:center;text-anchor:middle;fill:#f00f0f;fill-opacity:1;stroke:#f00f0f;stroke-width:1;stroke-linejoin:round;stroke-dasharray:none;stroke-opacity:1"
         id="path4750" />
      <path
         d="m 159.81369,220.55738 v -14.34257 h -0.80998 v 12.24847 l -10.52973,-12.34725 v 14.20428 h 0.79022 v -11.97189 z"
         style="font-weight:500;font-family:GeosansLight;-inkscape-font-specification:'GeosansLight Medium';text-align:center;text-anchor:middle;fill:#f00f0f;fill-opacity:1;stroke:#f00f0f;stroke-width:1;stroke-linejoin:round;stroke-dasharray:none;stroke-opacity:1"
         id="path4752" />
      <path
         d="m 173.87898,213.2478 q 0,-2.90407 -1.67923,-4.89938 -1.778,-2.13361 -4.62281,-2.13361 h -4.70183 v 14.1055 h 4.70183 q 2.86456,0 4.64257,-2.13361 1.65947,-2.01507 1.65947,-4.9389 z m -0.80998,0 q 0,2.90408 -1.71874,4.64257 -1.6002,1.61996 -3.77332,1.61996 h -3.91161 v -12.5053 h 3.91161 q 2.50896,0 4.0499,1.89654 1.44216,1.75825 1.44216,4.34623 z"
         style="font-weight:500;font-family:GeosansLight;-inkscape-font-specification:'GeosansLight Medium';text-align:center;text-anchor:middle;fill:#f00f0f;fill-opacity:1;stroke:#f00f0f;stroke-width:1;stroke-linejoin:round;stroke-dasharray:none;stroke-opacity:1"
         id="path4754" />
    </g>
  </g>
</svg>
